<svg xmlns="http://www.w3.org/2000/svg" viewBox="0 0 64 64">
  <rect width="64" height="64" rx="14" fill="#080d14"/>
  <path d="M12 44V20h9.5c7.2 0 11.5 3.7 11.5 10.2C33 36.7 28.6 44 20.8 44H12Z" fill="#2dd4bf"/>
  <path d="M18.5 37.5h2.1c3.8 0 6.1-3.4 6.1-7.1 0-3.5-2.1-4.9-5.5-4.9h-2.7v12Z" fill="#080d14"/>
  <path d="M36 40.2c2.1 1.1 4.4 1.7 6.8 1.7 2.7 0 4.5-1 4.5-2.8 0-1.7-1.3-2.4-4.6-3.7-4.7-1.8-7.8-4.1-7.8-8.1 0-5 4.2-8.1 10.5-8.1 3 0 5.4.6 7.1 1.4l-1.7 5.3c-1.1-.5-3.1-1.3-5.6-1.3-2.6 0-3.9 1.1-3.9 2.5 0 1.7 1.6 2.4 5.1 3.9 5 2 7.3 4.4 7.3 8 0 4.9-3.8 8.4-11.2 8.4-3.2 0-6.3-.8-7.9-1.7L36 40.2Z" fill="#60a5fa"/>
  <path d="M10 52h44" stroke="#fbbf24" stroke-width="4" stroke-linecap="round"/>
</svg>
